# xmcd
#
# Track frame offsets:
#	150
#	49072
#	95720
#	146349
#	174145
#
# Disc length: 3020 seconds
#
# Revision: 0
# Processed by: cddbd v1.5.2PL0 Copyright (c) Steve Scherf et al.
# Submitted via: audiograbber 1.83.01
#
DISCID=390bca05
DTITLE=Grateful Dead - 92-06-11 Knickerbocker Arena, Albany NY
DYEAR=1900
DGENRE=
TTITLE0=Foolish Heart
TTITLE1=Playing In The Band
TTITLE2=Uncle John's Band
TTITLE3=Drums
TTITLE4=Space
EXTD=
EXTT0=
EXTT1=
EXTT2=
EXTT3=
EXTT4=
PLAYORDER=
